<?xml version="1.0" standalone="no"?>
<!DOCTYPE svg PUBLIC "-//W3C//DTD SVG 20010904//EN"
 "http://www.w3.org/TR/2001/REC-SVG-20010904/DTD/svg10.dtd">
<svg version="1.0" xmlns="http://www.w3.org/2000/svg"
 width="512.000000pt" height="512.000000pt" viewBox="0 0 512.000000 512.000000"
 preserveAspectRatio="xMidYMid meet">

<g transform="translate(0.000000,512.000000) scale(0.100000,-0.100000)"
fill="#000000" stroke="none">
<path d="M4264 4556 c-70 -22 -121 -66 -393 -339 l-264 -265 -66 26 c-179 69
-408 128 -616 159 -184 27 -572 24 -764 -6 -509 -78 -959 -281 -1385 -624
-135 -108 -391 -366 -500 -502 -118 -149 -264 -368 -272 -410 -11 -60 4 -100
86 -223 226 -341 546 -671 871 -897 46 -32 88 -62 94 -67 5 -5 -82 -99 -213
-231 -244 -246 -261 -271 -262 -372 0 -186 208 -289 365 -181 17 12 825 817
1797 1791 1257 1260 1772 1783 1788 1815 29 57 32 149 6 200 -54 105 -170 159
-272 126z m-1364 -741 c174 -27 450 -98 450 -116 0 -5 -67 -77 -149 -161
l-148 -153 -89 43 c-144 68 -224 85 -399 86 -209 0 -347 -37 -515 -142 -96
-59 -243 -206 -302 -302 -103 -166 -142 -306 -142 -510 -1 -169 18 -256 86
-403 l42 -88 -216 -216 -215 -215 -104 71 c-298 201 -612 506 -799 777 l-51
74 50 73 c177 256 485 564 746 748 352 248 768 405 1181 448 125 13 449 5 574
-14z m-166 -642 c33 -10 61 -23 63 -28 2 -6 -183 -196 -411 -424 l-414 -414
-22 69 c-92 290 48 617 321 752 47 24 115 49 150 57 83 19 234 13 313 -12z"/>
<path d="M4137 3462 c-59 -59 -107 -112 -106 -117 0 -6 39 -40 87 -77 205
-157 475 -445 621 -660 l32 -48 -41 -60 c-172 -254 -471 -557 -735 -746 -452
-324 -980 -489 -1505 -470 -164 5 -215 11 -383 42 l-89 17 -129 -129 c-93 -93
-125 -130 -115 -136 28 -16 265 -69 401 -90 187 -29 568 -31 750 -5 645 95
1183 373 1675 866 176 177 291 316 420 509 129 192 129 209 12 388 -112 170
-265 357 -427 520 -137 138 -328 304 -349 304 -6 0 -60 -48 -119 -108z"/>
<path d="M3336 2661 l-138 -138 -13 -79 c-16 -92 -73 -214 -134 -287 -94 -113
-238 -198 -375 -222 l-79 -13 -141 -141 c-77 -77 -137 -143 -134 -146 12 -12
165 -34 239 -35 253 -1 486 98 674 285 193 193 278 396 279 665 1 125 -16 250
-32 250 -4 0 -69 -62 -146 -139z"/>
</g>
</svg>
